<svg xmlns="http://www.w3.org/2000/svg" xmlns:xlink="http://www.w3.org/1999/xlink" version="1.1" id="Layer_1" x="0px" y="0px" width="90px" height="90px" viewBox="4.5 -9.0 90.0 121.5" enable-background="new 0 0 90 90" xml:space="preserve">
<g id="Black_Hair_5">
	<g id="Fur_10">
	</g>
	<g id="Black_Hair_4">
		<g>
			<g>
				<path d="M52.225,22.052c-3.422,1.272-6.522,3.091-9.17,5.325c-0.997,0.841-1.892,1.496-2.426,2.722      c-0.004-1.209,0.801-2.259,1.539-3.136c1.946-2.314,5.442-4.835,9.289-5.03C51.688,21.922,52.1,21.941,52.225,22.052z"/>
				<path d="M52.639,35.128c2.774,0.131,4.076,1.578,3.846,4.615c-0.094,1.258-0.571,3.011-0.827,4.438      c-0.224,1.246-0.791,3.717-0.236,4.615c0.534,0.865,2.167,0.437,3.313,0.474c-1.053,0.51-3.207,1.369-4.262,0.297      c-0.561-1.765-0.201-3.771,0.237-5.563c0.424-1.732,1.214-3.237,1.006-5.621C55.553,36.513,54.477,35.446,52.639,35.128z"/>
				<path d="M67.137,56.488c-0.891-1.223,0.979-2.195,1.773-2.663c2.18-1.283,4.396-2.052,6.744-3.313      c0.794-0.426,2.646-1.257,2.604-2.426c-0.042-1.167-2.01-1.212-3.254-1.359c-0.644-0.078-1.554-0.189-2.308-0.237      c-2.926-0.183-5.624-0.021-8.284-0.179c0.194-0.362,0.874-0.348,1.36-0.414c2.393-0.32,5.18-0.176,8.106,0.178      c1.149,0.139,2.165,0.341,3.195,0.65c0.94,0.283,2.253,0.701,2.307,1.539c0.063,0.983-1.616,1.912-2.426,2.365      c-2.207,1.24-4.243,1.971-6.508,3.077C69.012,54.409,67.632,55.037,67.137,56.488z"/>
				<path d="M36.427,52.761c2.026,0.483,4.253,1.782,4.142,4.2c-0.075,1.612-1.105,3.007-2.071,4.083      c-1.205,1.343-3.013,2.386-4.852,3.136c-1.972,0.805-4.004,1.571-4.97,3.019c-1.043,1.563-1.072,4.562-0.828,6.805      c-0.977-2.676-1.156-6.405,0.355-8.282c1.696-2.109,5.611-2.596,7.929-4.084c1.475-0.947,3.437-3.197,3.254-5.562      C39.243,54.229,37.857,53.447,36.427,52.761z"/>
				<path d="M59.621,23.235c-0.402-2.084-1.633-4.468-4.319-3.964c-0.385,0.072-0.81,0.245-1.124,0.415      c-0.546,0.294-0.865,0.922-1.479,0.947c0.244-1.688,2.455-3.117,4.732-2.544c1.114,0.28,2.297,1.427,2.723,2.485      c0.378,0.938,0.92,2.658,1.006,3.728c0.113,1.424-0.553,2.045-1.834,1.597c-2.217-0.775-4.467-3.232-5.917-4.319      C54.982,22.463,57.596,24.822,59.621,23.235z"/>
				<path d="M23.824,50.63c-1.055,0.251-1.999,0.378-3.077,0.296c-2.458-0.187-4.452-1.716-6.627-1.951      c-3.586-0.391-6.412,1.106-8.816,2.543c2.248-1.543,5.001-3.248,8.52-3.254c3.806-0.006,5.92,2.713,10.059,2.131      c3.217-6.466,11.251-8.118,18.46-10.591c-0.837-0.381-2.238-0.67-2.899-1.42c2.179,0.153,4.079-0.481,5.917-1.184      c1.321-0.504,2.61-1.051,3.728-1.657c2.374-1.285,4.108-3.27,5.681-5.088c-1.371-1.727-3.271-3.235-3.49-5.917      c1.58,1.576,3.08,3.23,4.852,4.615c3.264-2.361,7.195-5.11,12.366-4.733c5.358,0.39,7.928,3.623,10.235,7.219      c-0.107-1.16,0.117-2.481,0.297-3.55c0.486,0.915,0.469,1.904,0.709,2.84c0.736,2.849,2.08,5.096,2.959,7.928      c0.27,0.869,0.516,1.899,0.77,2.899c0.315,1.242,0.818,2.417,0.592,3.668c-0.709,0.456-1.525,1.181-2.662,1.302      c-0.84,0.09-2.051,0.069-2.308-0.533c-0.208-0.485-0.032-1.028-0.178-1.479c-0.166-0.514-0.468-0.63-0.71-1.124      c-0.932-0.754-2.422-1.134-3.491-2.071c-1.31-1.145-2.78-3.941-1.834-5.857c0.499-1.011,1.429-1.621,2.604-2.071      c-1.01,0.757-1.938,1.262-2.071,2.722c-0.168,1.826,0.918,3.678,2.13,4.792c1.02,0.937,2.643,1.617,3.313,2.544      c0.438,0.602,0.373,1.872,0.651,2.543c1.521,0.426,3.409-0.168,4.261-1.124c-0.44-2.528-1.156-4.918-1.895-7.219      c-0.688-2.144-1.596-4.45-3.018-6.035c-1.207-1.344-3.02-2.658-4.853-3.609c-5.34-2.77-12.851-1.568-17.337,1.42      c0.895,0.842,1.971,1.501,2.959,2.248c6.301,2.503,9.648,8.075,15.68,10.946c0.398,0.19,0.856,0.401,1.303,0.592      c0.396,0.17,0.977,0.262,1.063,0.829c-3.843-1.245-6.635-3.542-9.524-5.74c0.776,1.426,2.828,4.333,1.063,6.154      c0.13-1.731-0.442-3.31-1.124-4.615c-1.137-2.178-2.346-3.524-4.201-4.97c-0.602-0.468-1.285-1.062-1.895-1.361      c-1.102-0.542-2.661-0.588-3.846-1.124c-1.093-0.495-1.959-1.11-2.898-1.834c-1.602,0.785-2.52,2.767-3.729,4.142      c-1.138,0.921-1.904,2.149-3.018,3.077c-3.245,2.704-7.919,4.209-12.544,5.68c-3.004,0.956-5.811,2.037-8.165,3.964      c-2.669,2.186-4.921,5.316-4.379,10.414C22.521,55.902,22.988,52.434,23.824,50.63z"/>
				<path d="M63.289,49.447c-0.918,1.476-2.538,2.41-4.201,3.254c-3.318,1.684-7.275,2.822-11.359,3.432      c-2.031,0.303-4.162,0.585-6.095,0.118C50.177,55.682,57.346,53.363,63.289,49.447z"/>
			</g>
		</g>
	</g>
</g>
<text x="0.0" y="105.75" font-size="4.5" font-weight="bold" font-family="Helvetica Neue, Helvetica, Arial-Unicode, Arial, Sans-serif" fill="#000000">Created by Gwyn Lewis</text><text x="0.0" y="110.25" font-size="4.5" font-weight="bold" font-family="Helvetica Neue, Helvetica, Arial-Unicode, Arial, Sans-serif" fill="#000000">from the Noun Project</text></svg>